<svg xmlns="http://www.w3.org/2000/svg" width="256" height="256" viewBox="0 0 256 256">
  <defs>
    <filter id="softShadow" x="-20%" y="-20%" width="140%" height="140%">
      <feDropShadow dx="0" dy="6" stdDeviation="8" flood-opacity="0.18"></feDropShadow>
    </filter>
    <linearGradient id="iconGrad" x1="0" y1="0" x2="1" y2="1">
      <stop offset="0" stop-color="#7a8a9a"></stop>
      <stop offset="1" stop-color="#4f5b66"></stop>
    </linearGradient>
  </defs>

  <!-- Tile -->
  <rect x="28" y="28" width="200" height="200" rx="44" fill="#ffffff" filter="url(#softShadow)"></rect>

  <!-- Minimal “note leaf” icon -->
  <path d="M170 88c-34 2-62 18-78 38-18 22-24 52-12 72 20 6 48-1 70-20 20-18 34-46 36-90 0-2-1-2-2-0z" fill="url(#iconGrad)" opacity="0.92"></path>
  <path d="M94 176c32-18 58-44 78-82" fill="none" stroke="#36424d" stroke-width="10" stroke-linecap="round" opacity="0.18"></path>

  <!-- Small “spark” detail (subtle) -->
  <circle cx="86" cy="94" r="6" fill="#c6ced6" opacity="0.8"></circle>
  <circle cx="76" cy="108" r="4" fill="#d5dde5" opacity="0.8"></circle>
</svg>
